<svg width="137" height="35" viewBox="0 0 137 35" fill="none" xmlns="http://www.w3.org/2000/svg">
<path d="M41.5029 6.67188H45.8975V21.4375C45.8975 22.7949 45.5947 23.9961 44.9893 25.041C44.3936 26.0762 43.5488 26.877 42.4551 27.4434C41.3613 28.0098 40.126 28.293 38.749 28.293C36.4932 28.293 34.7354 27.7217 33.4756 26.5791C32.2158 25.4268 31.5859 23.8008 31.5859 21.7012H36.0098C36.0098 22.7461 36.2295 23.5176 36.6689 24.0156C37.1084 24.5137 37.8018 24.7627 38.749 24.7627C39.5889 24.7627 40.2578 24.4746 40.7559 23.8984C41.2539 23.3223 41.5029 22.502 41.5029 21.4375V6.67188Z" fill="#1EEEE2"/>
<path d="M55.2566 20.4854V28H50.8621V6.67188H59.1824C60.784 6.67188 62.1902 6.96484 63.4012 7.55078C64.6219 8.13672 65.5594 8.97168 66.2137 10.0557C66.868 11.1299 67.1951 12.3555 67.1951 13.7324C67.1951 15.8223 66.4773 17.4727 65.0418 18.6836C63.616 19.8848 61.6385 20.4854 59.1092 20.4854H55.2566ZM55.2566 16.9258H59.1824C60.3445 16.9258 61.2283 16.6523 61.8338 16.1055C62.449 15.5586 62.7566 14.7773 62.7566 13.7617C62.7566 12.7168 62.449 11.8721 61.8338 11.2275C61.2186 10.583 60.3689 10.251 59.285 10.2314H55.2566V16.9258ZM80.0553 16.1201C79.4791 16.042 78.9713 16.0029 78.5318 16.0029C76.9303 16.0029 75.8805 16.5449 75.3824 17.6289V28H71.149V12.1504H75.148L75.2652 14.04C76.1148 12.585 77.2916 11.8574 78.7955 11.8574C79.2643 11.8574 79.7037 11.9209 80.1139 12.0479L80.0553 16.1201ZM82.1195 19.9287C82.1195 18.3564 82.4223 16.9551 83.0277 15.7246C83.6332 14.4941 84.5023 13.542 85.6352 12.8682C86.7777 12.1943 88.101 11.8574 89.6049 11.8574C91.7436 11.8574 93.4867 12.5117 94.8344 13.8203C96.1918 15.1289 96.9486 16.9062 97.1049 19.1523L97.1342 20.2363C97.1342 22.668 96.4555 24.6211 95.098 26.0957C93.7406 27.5605 91.9193 28.293 89.6342 28.293C87.349 28.293 85.5229 27.5605 84.1557 26.0957C82.7982 24.6309 82.1195 22.6387 82.1195 20.1191V19.9287ZM86.3529 20.2363C86.3529 21.7402 86.6361 22.8926 87.2025 23.6934C87.7689 24.4844 88.5795 24.8799 89.6342 24.8799C90.6596 24.8799 91.4604 24.4893 92.0365 23.708C92.6127 22.917 92.9008 21.6572 92.9008 19.9287C92.9008 18.4541 92.6127 17.3115 92.0365 16.501C91.4604 15.6904 90.6498 15.2852 89.6049 15.2852C88.5697 15.2852 87.7689 15.6904 87.2025 16.501C86.6361 17.3018 86.3529 18.5469 86.3529 20.2363ZM100.326 19.958C100.326 17.5264 100.903 15.5684 102.055 14.084C103.217 12.5996 104.779 11.8574 106.742 11.8574C108.481 11.8574 109.833 12.4531 110.8 13.6445L110.976 12.1504H114.814V27.4727C114.814 28.8594 114.496 30.0654 113.862 31.0908C113.237 32.1162 112.353 32.8975 111.21 33.4346C110.068 33.9717 108.73 34.2402 107.196 34.2402C106.034 34.2402 104.902 34.0059 103.798 33.5371C102.695 33.0781 101.86 32.4824 101.293 31.75L103.168 29.1719C104.223 30.3535 105.502 30.9443 107.006 30.9443C108.129 30.9443 109.003 30.6416 109.628 30.0361C110.253 29.4404 110.566 28.5908 110.566 27.4873V26.6377C109.589 27.7412 108.305 28.293 106.713 28.293C104.809 28.293 103.266 27.5508 102.084 26.0664C100.912 24.5723 100.326 22.5947 100.326 20.1338V19.958ZM104.56 20.2656C104.56 21.7012 104.848 22.8291 105.424 23.6494C106 24.46 106.791 24.8652 107.797 24.8652C109.086 24.8652 110.009 24.3818 110.566 23.415V16.75C109.999 15.7832 109.086 15.2998 107.826 15.2998C106.811 15.2998 106.01 15.7148 105.424 16.5449C104.848 17.375 104.56 18.6152 104.56 20.2656Z" fill="#555959"/>
<path d="M27.7903 12.2904C28.0719 12.2904 28.3003 12.5189 28.3003 12.8004C28.3003 13.0819 28.0719 13.3104 27.7903 13.3104H24.9343C24.6521 13.3104 24.4243 13.0819 24.4243 12.8004C24.4243 12.5189 24.6521 12.2904 24.9343 12.2904H27.7903Z" fill="#1EEEE2"/>
<path d="M26.5854 6.40019C26.7262 6.64431 26.6425 6.95575 26.3991 7.09719L23.9266 8.52452C23.8464 8.57076 23.7586 8.59252 23.6716 8.59252C23.4955 8.59252 23.3241 8.5014 23.2296 8.33752C23.0888 8.09339 23.1725 7.78195 23.4166 7.64119L25.8891 6.21386C26.1325 6.07242 26.4446 6.15606 26.5854 6.40019Z" fill="#1EEEE2"/>
<path d="M26.3991 18.5043C26.6425 18.645 26.7262 18.9565 26.5854 19.2006C26.4909 19.3645 26.3195 19.4556 26.1434 19.4556C26.057 19.4556 25.9693 19.4338 25.8891 19.3876L23.4166 17.9603C23.1725 17.8188 23.0888 17.5074 23.2296 17.2633C23.3704 17.0191 23.6825 16.9355 23.9266 17.0769L26.3991 18.5043Z" fill="#1EEEE2"/>
<path d="M23.4553 12.7113C23.4553 14.4616 22.8977 16.1229 21.8423 17.5142C20.0621 19.8622 19.1312 22.606 19.1312 25.4485V28.5248C19.1312 29.8896 18.0207 31 16.656 31H14.3542C12.9894 31 11.8789 29.8896 11.8789 28.5248V25.4485C11.8789 22.6366 10.9154 19.8235 9.16641 17.5264C8.08928 16.112 7.52828 14.4215 7.5446 12.6379C7.56296 10.5571 8.3878 8.59322 9.86613 7.10673C11.3445 5.62092 13.3049 4.78588 15.385 4.75664C17.5311 4.72536 19.5569 5.53932 21.0848 7.04621C22.6135 8.5531 23.4553 10.5652 23.4553 12.7113ZM21.0297 16.8974C21.9491 15.685 22.4353 14.2372 22.4353 12.7113C22.4353 10.8406 21.7016 9.08622 20.3688 7.77245C19.0367 6.45869 17.2727 5.75148 15.3993 5.77664C11.6641 5.829 8.59792 8.91146 8.5646 12.6467C8.55032 14.2019 9.03925 15.6755 9.97833 16.909C11.8218 19.3298 12.8547 22.2871 12.8976 25.2567H18.1017C18.1431 22.2586 19.1536 19.372 21.0297 16.8974ZM18.1112 28.5248V28.3636L12.8989 27.7666V28.1794L18.0881 28.7737C18.1023 28.6928 18.1112 28.6098 18.1112 28.5248ZM18.1112 27.3368V26.2767H12.8989V26.7398L18.1112 27.3368ZM17.4706 29.7298L13.0798 29.2266C13.328 29.6754 13.8061 29.98 14.3542 29.98H16.656C16.9579 29.98 17.238 29.8875 17.4706 29.7298Z" fill="#1EEEE2"/>
<path d="M21.9002 1.71496C22.1436 1.85572 22.2273 2.16717 22.0865 2.41129L20.6592 4.88378C20.5647 5.04766 20.3933 5.13878 20.2172 5.13878C20.1308 5.13878 20.0431 5.11702 19.9629 5.07078C19.7187 4.93002 19.6351 4.6179 19.7759 4.37378L21.2032 1.90128C21.3439 1.65716 21.6561 1.57352 21.9002 1.71496Z" fill="#1EEEE2"/>
<path d="M21.6193 12.7113C21.6193 12.9024 21.6105 13.0948 21.5935 13.2832C21.569 13.5484 21.3467 13.7469 21.0862 13.7469C21.0706 13.7469 21.0549 13.7463 21.0386 13.7449C20.7585 13.7191 20.5517 13.4709 20.5776 13.19C20.5919 13.0323 20.5993 12.8711 20.5993 12.7113C20.5993 9.89949 18.3118 7.61195 15.5 7.61195C15.2185 7.61195 14.99 7.38347 14.99 7.10195C14.99 6.82043 15.2185 6.59195 15.5 6.59195C18.8742 6.59195 21.6193 9.33712 21.6193 12.7113Z" fill="#1EEEE2"/>
<path d="M20.8584 14.4575C21.1175 14.5691 21.2365 14.869 21.1249 15.128C20.9311 15.5789 20.6802 16.008 20.3797 16.4044C20.2797 16.537 20.1274 16.6064 19.973 16.6064C19.8656 16.6064 19.7575 16.5724 19.665 16.503C19.4406 16.3323 19.3971 16.0127 19.5671 15.7883C19.818 15.4572 20.0267 15.0995 20.1886 14.7241C20.3001 14.4657 20.6 14.346 20.8584 14.4575Z" fill="#1EEEE2"/>
<path d="M18.1112 28.3636V28.5248C18.1112 28.6098 18.1024 28.6927 18.0881 28.7737L12.899 28.1793V27.7666L18.1112 28.3636Z" fill="white"/>
<path d="M18.1112 26.2767V27.3368L12.899 26.7398V26.2767H18.1112Z" fill="white"/>
<path d="M13.0798 29.2266L17.4706 29.7298C17.2381 29.8875 16.9579 29.98 16.656 29.98H14.3542C13.8061 29.98 13.328 29.6754 13.0798 29.2266Z" fill="white"/>
<path d="M16.01 0.510003V3.36602C16.01 3.64754 15.7815 3.87602 15.5 3.87602C15.2178 3.87602 14.99 3.64754 14.99 3.36602V0.510003C14.99 0.228481 15.2178 0 15.5 0C15.7815 0 16.01 0.228481 16.01 0.510003Z" fill="#1EEEE2"/>
<path d="M13.9428 20.5558C14.0305 20.8237 13.885 21.1114 13.6171 21.1998C13.5647 21.2168 13.511 21.2256 13.4579 21.2256C13.2437 21.2256 13.0438 21.0889 12.9738 20.8747C12.4441 19.2638 11.6546 17.763 10.6271 16.4146C10.4102 16.1297 10.2177 15.8257 10.0552 15.5116C9.92601 15.2613 10.0239 14.9533 10.2742 14.8241C10.5244 14.6949 10.8325 14.7928 10.9617 15.043C11.097 15.3048 11.2575 15.5585 11.439 15.7965C12.5352 17.2354 13.377 18.8368 13.9428 20.5558Z" fill="#1EEEE2"/>
<path d="M11.2234 4.37378C11.3642 4.6179 11.2805 4.93002 11.0371 5.07078C10.9569 5.11702 10.8691 5.13878 10.7821 5.13878C10.606 5.13878 10.4346 5.04766 10.3401 4.88378L8.91276 2.41129C8.772 2.16717 8.85564 1.85572 9.09976 1.71496C9.3432 1.57352 9.65532 1.65716 9.79608 1.90128L11.2234 4.37378Z" fill="#1EEEE2"/>
<path d="M10.4564 13.4783C10.4979 13.7571 10.3061 14.0169 10.0273 14.0584C10.0022 14.0618 9.97632 14.0638 9.95184 14.0638C9.70296 14.0638 9.48536 13.8823 9.44796 13.6293C9.40036 13.3097 9.37724 12.9813 9.38064 12.6542C9.38268 12.3727 9.61524 12.1469 9.89472 12.1489C10.1769 12.1517 10.4027 12.3822 10.4006 12.6637C10.3979 12.9377 10.417 13.2118 10.4564 13.4783Z" fill="#1EEEE2"/>
<path d="M7.58336 7.64119C7.8268 7.78195 7.91044 8.09339 7.76968 8.33752C7.67516 8.5014 7.5038 8.59252 7.32767 8.59252C7.24131 8.59252 7.15359 8.57076 7.07335 8.52452L4.60086 7.09719C4.35674 6.95575 4.2731 6.64431 4.41386 6.40019C4.55462 6.15606 4.86674 6.07242 5.11086 6.21386L7.58336 7.64119Z" fill="#1EEEE2"/>
<path d="M7.76968 17.2633C7.91044 17.5074 7.8268 17.8188 7.58336 17.9603L5.11086 19.3876C5.03062 19.4338 4.9429 19.4556 4.85586 19.4556C4.67974 19.4556 4.50838 19.3645 4.41386 19.2006C4.2731 18.9565 4.35674 18.645 4.60086 18.5043L7.07335 17.0769C7.31679 16.9355 7.62892 17.0191 7.76968 17.2633Z" fill="#1EEEE2"/>
<path d="M6.0656 12.2904C6.34712 12.2904 6.5756 12.5189 6.5756 12.8004C6.5756 13.0819 6.34712 13.3104 6.0656 13.3104H3.20959C2.92739 13.3104 2.69958 13.0819 2.69958 12.8004C2.69958 12.5189 2.92739 12.2904 3.20959 12.2904H6.0656Z" fill="#1EEEE2"/>
</svg>
