<svg width="26" height="25" viewBox="0 0 26 25" fill="none"
    xmlns="http://www.w3.org/2000/svg">
    <path d="M5.87105 5.38066C7.51015 5.38066 8.83891 4.17616 8.83891 2.69033C8.83891 1.2045 7.51015 0 5.87105 0C4.23195 0 2.9032 1.2045 2.9032 2.69033C2.9032 4.17616 4.23195 5.38066 5.87105 5.38066Z" fill="#A2DFE9"/>
    <path d="M15.6808 5.38146C17.3199 5.38146 18.6487 4.17695 18.6487 2.69113C18.6487 1.2053 17.3199 0.000793457 15.6808 0.000793457C14.0417 0.000793457 12.713 1.2053 12.713 2.69113C12.713 4.17695 14.0417 5.38146 15.6808 5.38146Z" fill="#A2DFE9"/>
    <path d="M17.5485 23.5767C17.549 24.3633 18.2526 25 19.1199 25H19.1216C19.989 24.9996 20.6926 24.3614 20.6918 23.5748L20.69 21.6331H17.5481L17.5485 23.5767Z" fill="#A2DFE9"/>
    <path d="M0.866591 14.6126L0.860113 23.5744C0.859249 24.3614 1.56288 24.9996 2.43108 25C2.43108 25 2.43151 25 2.43194 25C3.29927 25 4.0029 24.3626 4.00377 23.5763L4.00895 15.0966C4.65859 14.8624 5.20715 14.4082 5.37474 13.6991L5.89437 11.501C6.7211 12.3757 8.08646 12.8777 10.5209 13.1795C10.574 13.1862 10.6263 13.1893 10.6785 13.1893C11.164 13.1893 11.5942 12.9094 11.7579 12.4998C13.6637 12.4086 14.8459 12.0527 15.6147 11.3197L16.178 13.6999C16.324 14.3158 16.7581 14.7391 17.2954 14.994H18.0427C18.2038 14.5832 18.5286 14.2446 18.9566 14.0429C18.5675 12.3569 18.0258 10.6999 17.5611 9.6928C17.244 9.16382 17.6867 8.98175 17.9222 9.53031C18.1589 10.0793 19.0413 12.5805 19.4024 14.216C18.8577 14.3679 18.44 14.7853 18.3442 15.3037H16.1253V21.2462H25.0025V15.3033H22.7841C22.686 14.7806 22.2627 14.3608 21.712 14.2121C21.718 14.1255 21.7163 14.0386 21.6969 13.9497C21.55 13.2692 19.7475 6.85799 19.7475 6.85799C19.4918 5.77614 18.666 5.25655 17.6384 5.22993L17.6293 5.23032C17.6293 5.23032 17.2665 5.23189 16.9546 5.28631C16.6272 5.34309 16.3417 5.48522 16.3417 5.48522C15.5841 5.81843 14.8597 6.50638 14.7703 7.34194C14.7591 7.38227 14.7439 7.42104 14.7375 7.46371C14.5375 8.74016 14.3366 9.5491 13.9055 9.90502C13.4615 10.2723 12.4611 10.4356 10.6651 10.4356C10.2492 10.4356 9.88894 10.6372 9.6855 10.9364C8.60133 10.7359 7.96206 10.4814 7.62472 10.127C7.18587 9.66774 7.02562 8.81378 6.81397 7.46293C6.80706 7.42064 6.7928 7.3811 6.78114 7.34077C6.69259 6.5056 5.9678 5.81686 5.21017 5.48404C5.21017 5.48404 4.92423 5.34191 4.59768 5.28514C4.28453 5.23071 3.923 5.22915 3.923 5.22915L3.91392 5.22836C2.88591 5.25538 1.67605 5.77497 1.42077 6.85642L0.0484993 12.6635C-0.134643 13.4391 0.247622 14.1334 0.866591 14.6126ZM20.5626 15.1956C20.636 15.1956 20.7103 15.1886 20.7855 15.1757C21.0351 15.1314 21.2477 15.0147 21.4079 14.8573C21.6787 14.9 21.899 15.0739 21.9902 15.3033H19.1372C19.2283 15.0739 19.4486 14.9008 19.7186 14.8581C19.9324 15.068 20.2361 15.1956 20.5626 15.1956Z" fill="#A2DFE9"/>
</svg>
