<svg width="25" height="25" viewBox="0 0 25 25" fill="none"
    xmlns="http://www.w3.org/2000/svg">
    <path d="M20.6028 13.7532L19.8735 14.4725L23.5615 18.2105L19.8735 21.9485L20.6028 22.6678L25 18.2105L20.6028 13.7532Z" fill="hsl(210, 80%, 50%)"/>
    <path d="M5.12605 14.4725L4.39676 13.7532L0 18.2105L4.39676 22.6678L5.12605 21.9485L1.43858 18.2105L5.12605 14.4725Z" fill="hsl(210, 80%, 50%)"/>
    <path d="M20.4997 2.33218H4.50028L1.63263 8.06748L12.5 18.9348L23.3673 8.06748L20.4997 2.33218ZM19.8664 3.35659L21.9152 7.45423H16.3487L15.6656 3.35659H19.8664ZM10.3728 3.35659H14.6272L15.3102 7.45423H9.6897L10.3728 3.35659ZM5.13353 3.35659H9.33436L8.65129 7.45423H3.08471L5.13353 3.35659ZM3.49237 8.47864H8.71616L11.3282 16.3145L3.49237 8.47864ZM9.79559 8.47864H15.2044L12.5 16.5914L9.79559 8.47864ZM13.6717 16.3145L16.2838 8.47864H21.5076L13.6717 16.3145Z" fill="hsl(210, 80%, 50%)"/>
</svg>
