<svg width="25" height="25" viewBox="0 0 25 25" fill="none"
    xmlns="http://www.w3.org/2000/svg">
    <path d="M23.6003 11.1028H23.0055V7.52922C23.0055 6.06798 21.816 4.88361 20.3599 4.88361H19.8113L19.8164 3.55567C19.8164 2.57126 19.0166 1.77142 18.0322 1.77142H2.16879C0.984413 1.77142 0.0153815 2.72507 0 3.90945C0 3.9197 0 3.92996 0 3.94021V21.4443C0 22.4287 0.799836 23.2286 1.78425 23.2286H20.3651C21.8263 23.2286 23.0107 22.0391 23.0107 20.583V17.0042H23.6054C24.3745 17.0042 25 16.3787 25 15.6096V12.4974C24.9949 11.7284 24.3694 11.1028 23.6003 11.1028ZM2.16879 3.00194H18.0322C18.3347 3.00194 18.5859 3.24804 18.5859 3.55055L18.5808 4.88361H2.16879C1.65094 4.88361 1.23052 4.46318 1.23052 3.94534C1.23052 3.42749 1.65094 3.00194 2.16879 3.00194ZM21.775 20.5778C21.775 21.3572 21.1393 21.9929 20.3599 21.9929H1.77912C1.47662 21.9929 1.22539 21.7468 1.22539 21.4392V5.89878C1.51251 6.03722 1.83039 6.11412 2.16879 6.11412H20.3599C21.1393 6.11412 21.775 6.74989 21.775 7.52922V11.1028H17.5759C16.8068 11.1028 16.1813 11.7284 16.1813 12.4974V15.6096C16.1813 16.3787 16.8068 17.0042 17.5759 17.0042H21.775V20.5778V20.5778ZM23.7644 15.6096C23.7644 15.7019 23.6926 15.7737 23.6003 15.7737H17.581C17.4887 15.7737 17.4169 15.7019 17.4169 15.6096V12.4974C17.4169 12.4103 17.4887 12.3334 17.581 12.3334H23.6003C23.6874 12.3334 23.7644 12.4051 23.7644 12.4974V15.6096Z" fill="#A2DFE9"/>
</svg>
