<svg width="126" height="126" viewBox="0 0 126 126" fill="none" xmlns="http://www.w3.org/2000/svg">
<path d="M63 126C97.7939 126 126 97.7939 126 63C126 28.2061 97.7939 0 63 0C28.2061 0 0 28.2061 0 63C0 97.7939 28.2061 126 63 126Z" fill="#E5E5E5"/>
<path d="M90.2493 31.6147C89.3569 31.6562 88.5165 31.9156 87.7694 32.2061H87.759C87.0016 32.507 83.4011 34.0219 77.933 36.315C72.4649 38.6184 65.3677 41.6067 58.3224 44.5743C44.2526 50.4989 30.4214 56.3302 30.4214 56.3302L30.5874 56.268C30.5874 56.268 29.6328 56.5793 28.6367 57.2641C28.1283 57.5961 27.568 58.0527 27.0803 58.7686C26.5927 59.4845 26.1984 60.5844 26.3436 61.7154C26.5823 63.6349 27.8274 64.7867 28.7197 65.4196C29.6224 66.0629 30.4836 66.3638 30.4836 66.3638H30.5044L43.4744 70.7321C44.0554 72.5998 47.4276 83.6813 48.2369 86.2338C48.7142 87.7591 49.1812 88.7137 49.7622 89.44C50.0424 89.8135 50.3744 90.1248 50.7687 90.3738C50.9243 90.4672 51.0903 90.5398 51.2564 90.6021C51.3082 90.6332 51.3601 90.6436 51.4224 90.654L51.2875 90.6228C51.329 90.6332 51.3601 90.6643 51.3912 90.6747C51.495 90.7058 51.5676 90.7162 51.7025 90.737C53.757 91.3595 55.4067 90.0833 55.4067 90.0833L55.5001 90.0107L63.1576 83.038L75.9927 92.8848L76.2832 93.0093C78.9602 94.1818 81.6683 93.5281 83.1002 92.3764C84.5425 91.2143 85.1028 89.7305 85.1028 89.7305L85.1962 89.4919L95.1156 38.6807C95.3958 37.4252 95.4684 36.2527 95.1571 35.1114C94.8458 33.97 94.0469 32.9013 93.0819 32.3306C92.1066 31.7496 91.1416 31.5732 90.2493 31.6147ZM89.9795 37.0621C89.9691 37.2281 90.0003 37.2073 89.9276 37.529V37.5601L80.1016 87.8421C80.0601 87.9147 79.9874 88.0704 79.7903 88.226C79.5828 88.392 79.4168 88.4958 78.5555 88.1534L62.8567 76.1172L53.3731 84.7604L55.3652 72.0395C55.3652 72.0395 79.9563 49.1189 81.0147 48.1332C82.073 47.1475 81.7202 46.94 81.7202 46.94C81.7929 45.7364 80.1223 46.5872 80.1223 46.5872L47.7804 66.6232L47.77 66.5713L32.2683 61.3522V61.3418C32.2579 61.3418 32.2372 61.3315 32.2268 61.3315C32.2372 61.3315 32.3098 61.3003 32.3098 61.3003L32.3928 61.2588L32.4758 61.2277C32.4758 61.2277 46.3174 55.3964 60.3872 49.4717C67.4325 46.5042 74.5297 43.5159 79.9874 41.2124C85.4452 38.9194 89.4815 37.2384 89.7097 37.1451C89.9276 37.0621 89.8239 37.0621 89.9795 37.0621Z" fill="#1980E6"/>
</svg>
