<svg width="126" height="126" viewBox="0 0 126 126" fill="none" xmlns="http://www.w3.org/2000/svg">
<path d="M63 126C97.7939 126 126 97.7939 126 63C126 28.2061 97.7939 0 63 0C28.2061 0 0 28.2061 0 63C0 97.7939 28.2061 126 63 126Z" fill="#E5E5E5"/>
<path d="M98.4513 23.625H27.5763V106.312H98.4513V23.625Z" fill="white"/>
<path d="M98.471 15.75H27.596V23.625H98.471V15.75Z" fill="#3B3B3B"/>
<path d="M34.9689 21.1641C35.7844 21.1641 36.4455 20.503 36.4455 19.6875C36.4455 18.872 35.7844 18.2109 34.9689 18.2109C34.1534 18.2109 33.4924 18.872 33.4924 19.6875C33.4924 20.503 34.1534 21.1641 34.9689 21.1641Z" fill="#999999"/>
<path d="M39.3888 21.1641C40.2042 21.1641 40.8653 20.503 40.8653 19.6875C40.8653 18.872 40.2042 18.2109 39.3888 18.2109C38.5733 18.2109 37.9122 18.872 37.9122 19.6875C37.9122 20.503 38.5733 21.1641 39.3888 21.1641Z" fill="#999999"/>
<path d="M43.8283 21.1641C44.6438 21.1641 45.3049 20.503 45.3049 19.6875C45.3049 18.872 44.6438 18.2109 43.8283 18.2109C43.0128 18.2109 42.3517 18.872 42.3517 19.6875C42.3517 20.503 43.0128 21.1641 43.8283 21.1641Z" fill="#999999"/>
<path d="M88.6174 21.6464H55.1486C54.0658 21.6464 53.1799 20.7605 53.1799 19.6777C53.1799 18.5949 54.0658 17.7089 55.1486 17.7089H88.6174C89.7002 17.7089 90.5861 18.5949 90.5861 19.6777C90.5861 20.7605 89.7002 21.6464 88.6174 21.6464Z" fill="white"/>
<path d="M61.045 64.9688H33.4825V66.9375H61.045V64.9688Z" fill="#CCCCCC"/>
<path d="M61.045 59.0428H33.4825V61.0116H61.045V59.0428Z" fill="#CCCCCC"/>
<path d="M61.045 53.1366H33.4825V55.1053H61.045V53.1366Z" fill="#CCCCCC"/>
<path d="M61.045 47.2303H33.4825V49.1991H61.045V47.2303Z" fill="#CCCCCC"/>
<path d="M61.045 41.3241H33.4825V43.2928H61.045V41.3241Z" fill="#CCCCCC"/>
<path d="M61.045 35.4178H33.4825V37.3866H61.045V35.4178Z" fill="#CCCCCC"/>
<path d="M61.045 29.5312H33.4825V31.5H61.045V29.5312Z" fill="#CCCCCC"/>
<path d="M92.5647 29.5312H66.971V66.9375H92.5647V29.5312Z" fill="#CCCCCC"/>
<path d="M98.471 106.312H27.596V110.25H98.471V106.312Z" fill="#1980E6"/>
<path d="M92.5451 72.8438H33.4826V100.406H92.5451V72.8438Z" fill="#1980E6"/>
</svg>
