<svg width="126" height="126" viewBox="0 0 126 126" fill="none" xmlns="http://www.w3.org/2000/svg">
<path d="M63 126C97.7939 126 126 97.7939 126 63C126 28.2061 97.7939 0 63 0C28.2061 0 0 28.2061 0 63C0 97.7939 28.2061 126 63 126Z" fill="#E5E5E5"/>
<path d="M23.9844 21H101.016C103.216 21 105 22.9028 105 25.25V101.75C105 104.097 103.216 106 101.016 106H23.9844C21.7838 106 20 104.097 20 101.75V25.25C20 22.9028 21.7838 21 23.9844 21Z" fill="#CAD1D8"/>
<path d="M23.9844 32.3335H101.016C101.749 32.3335 102.344 32.9678 102.344 33.7502V101.75C102.344 102.533 101.749 103.167 101.016 103.167H23.9844C23.2509 103.167 22.6562 102.533 22.6562 101.75V33.7502C22.6562 32.9678 23.2509 32.3335 23.9844 32.3335Z" fill="white"/>
<path d="M23.9847 28.0821C24.718 28.0821 25.3125 27.448 25.3125 26.6658C25.3125 25.8836 24.718 25.2495 23.9847 25.2495C23.2514 25.2495 22.6569 25.8836 22.6569 26.6658C22.6569 27.448 23.2514 28.0821 23.9847 28.0821Z" fill="#9BA7AF"/>
<path d="M29.2972 28.0821C30.0305 28.0821 30.625 27.448 30.625 26.6658C30.625 25.8836 30.0305 25.2495 29.2972 25.2495C28.5639 25.2495 27.9694 25.8836 27.9694 26.6658C27.9694 27.448 28.5639 28.0821 29.2972 28.0821Z" fill="#9BA7AF"/>
<path d="M34.6097 28.0821C35.343 28.0821 35.9375 27.448 35.9375 26.6658C35.9375 25.8836 35.343 25.2495 34.6097 25.2495C33.8764 25.2495 33.2819 25.8836 33.2819 26.6658C33.2819 27.448 33.8764 28.0821 34.6097 28.0821Z" fill="#9BA7AF"/>
<path d="M39.9219 25.25H101.016C101.749 25.25 102.344 25.8843 102.344 26.6667C102.344 27.449 101.749 28.0833 101.016 28.0833H39.9219C39.1884 28.0833 38.5938 27.449 38.5938 26.6667C38.5938 25.8843 39.1884 25.25 39.9219 25.25Z" fill="#E2E5E7"/>
<path d="M39.2709 81.0246V80.964C39.6885 80.8627 40.0245 80.6364 40.2798 80.2841C40.5341 79.9313 40.6624 79.5057 40.6624 79.0087C40.6624 78.2522 40.3698 77.6951 39.7837 77.3362C39.1995 76.9773 38.3035 76.7991 37.0967 76.7991H34V85.6767H37.4551C38.5004 85.6767 39.3245 85.4453 39.9298 84.9814C40.535 84.518 40.8374 83.8829 40.8374 83.0788C40.8374 82.5357 40.7142 82.0947 40.4674 81.754C40.2205 81.4138 39.8225 81.1702 39.2709 81.0246ZM36.3991 78.6139H37.0725C37.8261 78.6139 38.2027 78.8622 38.2027 79.3605C38.2027 79.641 38.1089 79.8515 37.9204 79.9924C37.7318 80.1347 37.4654 80.2057 37.1219 80.2057H36.3991V78.6139ZM37.2428 83.8246H36.3991V81.9598H37.1947C37.5746 81.9598 37.8658 82.0391 38.066 82.1969C38.2662 82.3546 38.367 82.5814 38.367 82.8777C38.3665 83.5086 37.9922 83.8246 37.2428 83.8246Z" fill="#1980E6"/>
<path d="M47.0327 81.9971C47.0327 82.6355 46.9226 83.0956 46.701 83.378C46.4812 83.6598 46.126 83.7993 45.6356 83.7993C45.1787 83.7993 44.8325 83.657 44.5973 83.3747C44.3621 83.0919 44.2445 82.6355 44.2445 82.0083V76.7986H41.8337V82.1964C41.8337 83.3584 42.1581 84.2483 42.809 84.8694C43.4582 85.4891 44.3887 85.7976 45.5992 85.7976C46.8386 85.7976 47.7869 85.4793 48.4448 84.8414C49.1028 84.2035 49.4318 83.3038 49.4318 82.1418V76.7986H47.0327V81.9971Z" fill="#1980E6"/>
<path d="M53.039 78.7544C53.1814 78.6447 53.4082 78.5897 53.7199 78.5897C54.3223 78.5897 55.0387 78.7801 55.8688 79.1609L56.6034 77.3082C55.6481 76.8831 54.7111 76.6708 53.7927 76.6708C52.7521 76.6708 51.9345 76.899 51.339 77.3572C50.7436 77.815 50.4458 78.4525 50.4458 79.271C50.4458 79.7078 50.5158 80.0867 50.6554 80.4068C50.7949 80.7269 51.01 81.0102 51.2998 81.2561C51.5887 81.5039 52.0227 81.7583 52.6023 82.0219C53.2411 82.3098 53.6359 82.4993 53.7824 82.5926C53.9308 82.6855 54.0377 82.7774 54.1049 82.8698C54.1716 82.9599 54.2052 83.0672 54.2052 83.1885C54.2052 83.3836 54.1212 83.5423 53.9556 83.665C53.7904 83.7896 53.529 83.8498 53.1725 83.8498C52.7595 83.8498 52.3059 83.784 51.8117 83.6529C51.3185 83.5208 50.842 83.3383 50.3842 83.1032V85.2404C50.8182 85.4467 51.2345 85.5923 51.6358 85.6744C52.0367 85.7584 52.5327 85.7995 53.124 85.7995C53.8324 85.7995 54.4502 85.681 54.9752 85.4439C55.5021 85.2078 55.9048 84.875 56.1848 84.4485C56.4638 84.0211 56.6029 83.5325 56.6029 82.9818C56.6029 82.3822 56.4545 81.8847 56.1572 81.4909C55.859 81.0961 55.328 80.7269 54.5631 80.3826C53.7647 80.019 53.2761 79.7675 53.0964 79.6298C52.9159 79.4922 52.8258 79.3363 52.8258 79.1622C52.8267 78.998 52.8977 78.8622 53.039 78.7544Z" fill="#1980E6"/>
<path d="M59.8896 76.7986H57.4788V85.6762H59.8896V76.7986Z" fill="#1980E6"/>
<path d="M67.6276 80.8124C67.6276 81.3541 67.6556 82.0733 67.713 82.9674H67.6766L64.4446 76.7977H61.3115V85.6758H63.4371V81.6743C63.4371 81.1572 63.3988 80.4054 63.3223 79.4213H63.3755L66.6183 85.6763H69.7645V76.7987H67.6272V80.8124H67.6276Z" fill="#1980E6"/>
<path d="M71.1859 85.6767H76.4572V83.7209H73.5845V82.0452H76.2449V80.1202H73.5845V78.7235H76.4572V76.7986H71.1859V85.6767Z" fill="#1980E6"/>
<path d="M79.756 78.7544C79.8974 78.6447 80.1242 78.5897 80.4359 78.5897C81.0383 78.5897 81.7556 78.7801 82.5848 79.1609L83.3194 77.3082C82.3641 76.8831 81.4266 76.6708 80.5078 76.6708C79.4676 76.6708 78.6505 76.899 78.055 77.3572C77.4596 77.815 77.1618 78.4525 77.1618 79.271C77.1618 79.7078 77.2318 80.0867 77.3714 80.4068C77.5118 80.7269 77.726 81.0102 78.0158 81.2561C78.3047 81.5039 78.7396 81.7583 79.3183 82.0219C79.958 82.3098 80.351 82.4993 80.4994 82.5926C80.6464 82.6855 80.7546 82.7774 80.8204 82.8698C80.8876 82.9599 80.9207 83.0672 80.9207 83.1886C80.9207 83.3836 80.8377 83.5423 80.6725 83.665C80.5068 83.7882 80.2455 83.8489 79.8885 83.8489C79.4755 83.8489 79.0224 83.7831 78.5277 83.6519C78.0331 83.5199 77.559 83.3374 77.1007 83.1022V85.2395C77.5342 85.4458 77.951 85.5914 78.3527 85.6735C78.7522 85.7575 79.2487 85.7986 79.8404 85.7986C80.5488 85.7986 81.1657 85.68 81.6926 85.443C82.2185 85.2068 82.6212 84.8741 82.9012 84.4476C83.1812 84.0201 83.3194 83.5315 83.3194 82.9809C83.3194 82.3812 83.171 81.8838 82.8737 81.4899C82.575 81.0951 82.0454 80.726 81.2796 80.3816C80.4821 80.0181 79.9926 79.7666 79.8124 79.6289C79.6318 79.4912 79.5418 79.3354 79.5418 79.1613C79.5427 78.998 79.6136 78.8622 79.756 78.7544Z" fill="#1980E6"/>
<path d="M87.9598 80.3807C87.1623 80.0176 86.6737 79.7661 86.4931 79.6284C86.3125 79.4908 86.2234 79.3349 86.2234 79.1609C86.2234 78.998 86.2934 78.8622 86.4357 78.7544C86.5771 78.6447 86.8039 78.5897 87.1156 78.5897C87.719 78.5897 88.4353 78.7801 89.265 79.1609L89.9995 77.3082C89.0443 76.8831 88.1059 76.6708 87.1884 76.6708C86.1478 76.6708 85.3302 76.899 84.7343 77.3572C84.1384 77.8155 83.8425 78.4525 83.8425 79.271C83.8425 79.7078 83.9111 80.0867 84.0516 80.4068C84.1902 80.7269 84.4058 81.0102 84.6951 81.2561C84.9839 81.5039 85.4184 81.7583 85.9975 82.0219C86.6373 82.3098 87.0316 82.4993 87.1786 82.5926C87.3256 82.686 87.4339 82.7774 87.4997 82.8698C87.5669 82.9599 87.6 83.0672 87.6 83.1885C87.6 83.3836 87.5169 83.5423 87.3517 83.665C87.1856 83.7896 86.9243 83.8498 86.5673 83.8498C86.1543 83.8498 85.7021 83.784 85.2075 83.6529C84.7133 83.5208 84.2378 83.3383 83.78 83.1032V85.2404C84.213 85.4467 84.6302 85.5923 85.0306 85.6744C85.4315 85.7584 85.9284 85.7995 86.5188 85.7995C87.2271 85.7995 87.845 85.681 88.3709 85.4439C88.8968 85.2078 89.3005 84.875 89.5796 84.4485C89.8591 84.0211 89.9986 83.5325 89.9986 82.9818C89.9986 82.3822 89.8493 81.8847 89.552 81.4909C89.2557 81.0951 88.7246 80.726 87.9598 80.3807Z" fill="#1980E6"/>
<path d="M68.3407 52.6147C70.1115 52.6147 71.547 51.1791 71.547 49.4083C71.547 47.6375 70.1115 46.2019 68.3407 46.2019C66.5698 46.2019 65.1343 47.6375 65.1343 49.4083C65.1343 51.1791 66.5698 52.6147 68.3407 52.6147Z" fill="#9BA7AF"/>
<path d="M78.9389 52.6157C80.7097 52.6157 82.1453 51.1801 82.1453 49.4093C82.1453 47.6384 80.7097 46.2029 78.9389 46.2029C77.168 46.2029 75.7325 47.6384 75.7325 49.4093C75.7325 51.1801 77.168 52.6157 78.9389 52.6157Z" fill="#9BA7AF"/>
<path d="M80.9567 74.3011C80.9572 75.2386 81.7174 75.9974 82.6544 75.9974H82.6563C83.5933 75.9969 84.3535 75.2363 84.3525 74.2988L84.3507 71.9846H80.9562L80.9567 74.3011Z" fill="#9BA7AF"/>
<path d="M62.934 63.6174L62.927 74.2982C62.9261 75.2362 63.6863 75.9968 64.6243 75.9973C64.6243 75.9973 64.6247 75.9973 64.6252 75.9973C65.5622 75.9973 66.3224 75.2376 66.3233 74.3006L66.3289 64.1942C67.0308 63.9152 67.6234 63.3738 67.8045 62.5287L68.3659 59.9089C69.2591 60.9514 70.7342 61.5497 73.3642 61.9095C73.4216 61.9174 73.4781 61.9211 73.5346 61.9211C74.0591 61.9211 74.5239 61.5875 74.7007 61.0994C76.7596 60.9906 78.0368 60.5664 78.8675 59.6929L79.476 62.5297C79.6337 63.2637 80.1027 63.7682 80.6832 64.0719H81.4906C81.6646 63.5824 82.0155 63.1788 82.478 62.9384C82.0575 60.929 81.4724 58.9541 80.9702 57.7539C80.6277 57.1235 81.106 56.9065 81.3604 57.5602C81.6161 58.2145 82.5695 61.1955 82.9596 63.1447C82.3711 63.3258 81.9199 63.8232 81.8163 64.4411H79.4191V71.5235H89.0098V64.4406H86.613C86.5071 63.8176 86.0498 63.3174 85.4548 63.14C85.4613 63.0369 85.4595 62.9333 85.4385 62.8274C85.2798 62.0163 83.3324 54.3753 83.3324 54.3753C83.0562 53.086 82.1639 52.4667 81.0538 52.435L81.044 52.4354C81.044 52.4354 80.652 52.4373 80.3151 52.5022C79.9613 52.5698 79.6529 52.7392 79.6529 52.7392C78.8344 53.1364 78.0518 53.9563 77.9552 54.9521C77.9431 55.0002 77.9267 55.0464 77.9197 55.0972C77.7037 56.6185 77.4867 57.5826 77.0209 58.0068C76.5412 58.4446 75.4604 58.6391 73.5201 58.6391C73.0707 58.6391 72.6815 58.8795 72.4617 59.236C71.2904 58.9971 70.5998 58.6937 70.2353 58.2714C69.7612 57.724 69.5881 56.7063 69.3594 55.0963C69.3519 55.0459 69.3365 54.9988 69.3239 54.9507C69.2283 53.9553 68.4452 53.1345 67.6267 52.7378C67.6267 52.7378 67.3178 52.5684 66.965 52.5008C66.6267 52.4359 66.2361 52.434 66.2361 52.434L66.2263 52.4331C65.1156 52.4653 63.8085 53.0846 63.5327 54.3735L62.0502 61.2944C61.8523 62.2189 62.2653 63.0462 62.934 63.6174ZM84.213 64.3123C84.2924 64.3123 84.3726 64.3039 84.4538 64.2885C84.7235 64.2357 84.9531 64.0967 85.1263 63.9091C85.4189 63.9599 85.6569 64.1671 85.7553 64.4406H82.6731C82.7715 64.1671 83.0095 63.9609 83.3012 63.91C83.5322 64.1601 83.8602 64.3123 84.213 64.3123Z" fill="#9BA7AF"/>
</svg>
