<svg width="126" height="126" viewBox="0 0 126 126" fill="none" xmlns="http://www.w3.org/2000/svg">
<path d="M63 126C97.7939 126 126 97.7939 126 63C126 28.2061 97.7939 0 63 0C28.2061 0 0 28.2061 0 63C0 97.7939 28.2061 126 63 126Z" fill="#E5E5E5"/>
<path d="M23.9844 21H101.016C103.216 21 105 22.9028 105 25.25V101.75C105 104.097 103.216 106 101.016 106H23.9844C21.7838 106 20 104.097 20 101.75V25.25C20 22.9028 21.7838 21 23.9844 21Z" fill="#CAD1D8"/>
<path d="M23.9844 32.3335H101.016C101.749 32.3335 102.344 32.9678 102.344 33.7502V101.75C102.344 102.533 101.749 103.167 101.016 103.167H23.9844C23.2509 103.167 22.6562 102.533 22.6562 101.75V33.7502C22.6562 32.9678 23.2509 32.3335 23.9844 32.3335Z" fill="white"/>
<path d="M23.9847 28.0821C24.718 28.0821 25.3125 27.448 25.3125 26.6658C25.3125 25.8836 24.718 25.2495 23.9847 25.2495C23.2514 25.2495 22.6569 25.8836 22.6569 26.6658C22.6569 27.448 23.2514 28.0821 23.9847 28.0821Z" fill="#9BA7AF"/>
<path d="M29.2972 28.0821C30.0305 28.0821 30.625 27.448 30.625 26.6658C30.625 25.8836 30.0305 25.2495 29.2972 25.2495C28.5639 25.2495 27.9694 25.8836 27.9694 26.6658C27.9694 27.448 28.5639 28.0821 29.2972 28.0821Z" fill="#9BA7AF"/>
<path d="M34.6097 28.0821C35.343 28.0821 35.9375 27.448 35.9375 26.6658C35.9375 25.8836 35.343 25.2495 34.6097 25.2495C33.8764 25.2495 33.2819 25.8836 33.2819 26.6658C33.2819 27.448 33.8764 28.0821 34.6097 28.0821Z" fill="#9BA7AF"/>
<path d="M39.9219 25.25H101.016C101.749 25.25 102.344 25.8843 102.344 26.6667C102.344 27.449 101.749 28.0833 101.016 28.0833H39.9219C39.1884 28.0833 38.5938 27.449 38.5938 26.6667C38.5938 25.8843 39.1884 25.25 39.9219 25.25Z" fill="#E2E5E7"/>
<path d="M83.0966 67.9516V59.2419H80.3654C79.9589 57.6633 79.3347 56.158 78.5037 54.7513L80.4358 52.8185L74.2781 46.6608L72.3452 48.5928C70.9386 47.7619 69.4333 47.1369 67.8547 46.7312V44H59.145V46.7312C57.5664 47.1377 56.0611 47.7619 54.6544 48.5928L52.7218 46.6608L46.564 52.8185L48.4961 54.7513C47.6651 56.158 47.0403 57.6633 46.6345 59.2419H43.9033V67.9516H46.6345C47.041 69.5302 47.6651 71.0354 48.4961 72.4421L46.564 74.3749L52.7218 80.5327L54.6553 78.5998C54.7142 78.634 54.7802 78.6687 54.8404 78.7029C54.8084 78.864 54.7902 79.0309 54.7902 79.2014C54.7902 80.1115 55.2758 80.9056 55.9972 81.3542C55.6974 81.7715 55.5161 82.2789 55.5161 82.8305C55.5161 83.7406 56.0017 84.5347 56.7231 84.9833C56.4233 85.4006 56.2419 85.908 56.2419 86.4596C56.2419 87.8604 57.3814 89 58.7822 89H68.2177C69.6185 89 70.7581 87.8605 70.7581 86.4596C70.7581 85.908 70.5767 85.4006 70.2769 84.9833C70.9983 84.5347 71.4839 83.7408 71.4839 82.8305C71.4839 82.2789 71.3025 81.7715 71.0027 81.3542C71.7241 80.9056 72.2097 80.1117 72.2097 79.2014C72.2097 79.0309 72.1916 78.864 72.1596 78.7029C72.2198 78.6687 72.2859 78.634 72.3446 78.5998L74.2782 80.5327L80.4359 74.3749L78.5039 72.4421C79.3356 71.0354 79.9598 69.5302 80.3655 67.9516C80.3654 67.9516 83.0966 67.9516 83.0966 67.9516ZM68.2176 87.5482H58.7821C58.1819 87.5482 57.6934 87.0597 57.6934 86.4595C57.6934 85.8593 58.1819 85.3708 58.7821 85.3708H68.2176C68.8178 85.3708 69.3063 85.8593 69.3063 86.4595C69.3063 87.0599 68.818 87.5482 68.2176 87.5482ZM68.9434 83.9193H68.2176H58.7821H58.0563C57.456 83.9193 56.9675 83.4308 56.9675 82.8305C56.9675 82.2303 57.456 81.7418 58.0563 81.7418H68.9434C69.5436 81.7418 70.0321 82.2303 70.0321 82.8305C70.0323 83.4308 69.5436 83.9193 68.9434 83.9193ZM69.6694 80.2902H68.9436H58.0564H57.3306C56.7304 80.2902 56.2419 79.8017 56.2419 79.2014C56.2419 78.6012 56.7304 78.1127 57.3306 78.1127H69.6692C70.2694 78.1127 70.7579 78.6012 70.7579 79.2014C70.7578 79.8017 70.2696 80.2902 69.6694 80.2902ZM69.3412 76.6612H57.6586C57.4859 74.8598 56.67 73.1635 55.3187 71.8222C52.7283 69.2537 51.5148 65.6884 51.988 62.0398C52.6652 56.8337 56.9474 52.6348 62.1717 52.0572C65.5294 51.6819 68.7504 52.7097 71.2428 54.9429C73.7025 57.1443 75.1127 60.2986 75.1127 63.5966C75.1127 66.7343 73.8745 69.6753 71.626 71.8759C70.3255 73.149 69.5147 74.8619 69.3412 76.6612ZM79.0844 67.0683C78.6831 68.8784 77.9733 70.5913 76.9737 72.1606L76.661 72.652L78.3833 74.3751L74.2782 78.4802L72.5544 76.7571L72.063 77.0714C71.8764 77.1904 71.6834 77.3073 71.4793 77.4241C71.2791 77.2202 71.041 77.0568 70.7811 76.929C70.8936 75.4222 71.554 73.9787 72.6414 72.9139C75.1708 70.4374 76.5643 67.1285 76.5643 63.5966C76.5643 59.8871 74.9777 56.3379 72.2125 53.8615C69.4087 51.351 65.7898 50.1955 62.012 50.6142C56.1315 51.2646 51.3107 55.9917 50.5493 61.8525C50.0166 65.9526 51.3818 69.9627 54.2967 72.8521C55.4354 73.9837 56.1039 75.4164 56.2179 76.9283C55.9588 77.056 55.7208 77.2194 55.5205 77.4233C55.3165 77.3064 55.1234 77.1897 54.9369 77.0706L54.4455 76.7563L52.7216 78.4794L48.6165 74.3743L50.3388 72.6512L50.0261 72.1598C49.0267 70.5915 48.3169 68.8784 47.9154 67.0675L47.789 66.4999H45.3547V60.6935H47.789L47.9154 60.1252C48.3167 58.315 49.0265 56.6021 50.0261 55.0328L50.3388 54.5414L48.6165 52.8183L52.7216 48.7132L54.4447 50.4356L54.9361 50.1228C56.5045 49.1234 58.2175 48.4136 60.0284 48.0121L60.5968 47.8858V45.4516H66.4032V47.8859L66.9716 48.0123C68.7817 48.4136 70.4946 49.1234 72.0639 50.123L72.5553 50.4357L74.2784 48.7134L78.3835 52.8185L76.6611 54.5416L76.9739 55.033C77.9733 56.6014 78.6831 58.3144 79.0846 60.1253L79.2109 60.6937H81.6452V66.5001H79.2109L79.0844 67.0683Z" fill="#1980E6"/>
<path d="M64.2257 56.3386H62.7741C59.9732 56.3386 57.6935 58.6184 57.6935 61.4192V65.774C57.6935 68.5748 59.9732 70.8545 62.7741 70.8545H64.2257C67.0266 70.8545 69.3063 68.5748 69.3063 65.774V64.3223H64.9515V65.774C64.9515 66.1747 64.6264 66.4998 64.2257 66.4998H62.7741C62.3734 66.4998 62.0483 66.1747 62.0483 65.774V61.4192C62.0483 61.0185 62.3734 60.6934 62.7741 60.6934H64.2257C64.6264 60.6934 64.9515 61.0185 64.9515 61.4192V62.8708H69.3063V61.4192C69.3063 58.6185 67.0267 56.3386 64.2257 56.3386ZM66.4032 61.4194C66.4032 60.2189 65.4262 59.2419 64.2257 59.2419H62.7741C61.5736 59.2419 60.5966 60.2189 60.5966 61.4194V65.7741C60.5966 66.9746 61.5736 67.9516 62.7741 67.9516H64.2257C65.4262 67.9516 66.4032 66.9746 66.4032 65.7741H67.8548C67.8548 67.7752 66.2268 69.4032 64.2257 69.4032H62.7741C60.773 69.4032 59.145 67.7752 59.145 65.7741V61.4194C59.145 59.4182 60.773 57.7903 62.7741 57.7903H64.2257C66.2268 57.7903 67.8548 59.4182 67.8548 61.4194H66.4032Z" fill="#1980E6"/>
</svg>
