<svg width="126" height="126" viewBox="0 0 126 126" fill="none" xmlns="http://www.w3.org/2000/svg">
<path d="M63 126C97.7939 126 126 97.7939 126 63C126 28.2061 97.7939 0 63 0C28.2061 0 0 28.2061 0 63C0 97.7939 28.2061 126 63 126Z" fill="#E5E5E5"/>
<path d="M23.9844 21H101.016C103.216 21 105 22.9028 105 25.25V101.75C105 104.097 103.216 106 101.016 106H23.9844C21.7838 106 20 104.097 20 101.75V25.25C20 22.9028 21.7838 21 23.9844 21Z" fill="#CAD1D8"/>
<path d="M23.9844 32.3335H101.016C101.749 32.3335 102.344 32.9678 102.344 33.7502V101.75C102.344 102.533 101.749 103.167 101.016 103.167H23.9844C23.2509 103.167 22.6562 102.533 22.6562 101.75V33.7502C22.6562 32.9678 23.2509 32.3335 23.9844 32.3335Z" fill="white"/>
<path d="M23.9847 28.0821C24.718 28.0821 25.3125 27.448 25.3125 26.6658C25.3125 25.8836 24.718 25.2495 23.9847 25.2495C23.2514 25.2495 22.6569 25.8836 22.6569 26.6658C22.6569 27.448 23.2514 28.0821 23.9847 28.0821Z" fill="#9BA7AF"/>
<path d="M29.2972 28.0821C30.0305 28.0821 30.625 27.448 30.625 26.6658C30.625 25.8836 30.0305 25.2495 29.2972 25.2495C28.5639 25.2495 27.9694 25.8836 27.9694 26.6658C27.9694 27.448 28.5639 28.0821 29.2972 28.0821Z" fill="#9BA7AF"/>
<path d="M34.6097 28.0821C35.343 28.0821 35.9375 27.448 35.9375 26.6658C35.9375 25.8836 35.343 25.2495 34.6097 25.2495C33.8764 25.2495 33.2819 25.8836 33.2819 26.6658C33.2819 27.448 33.8764 28.0821 34.6097 28.0821Z" fill="#9BA7AF"/>
<path d="M39.9219 25.25H101.016C101.749 25.25 102.344 25.8843 102.344 26.6667C102.344 27.449 101.749 28.0833 101.016 28.0833H39.9219C39.1884 28.0833 38.5938 27.449 38.5938 26.6667C38.5938 25.8843 39.1884 25.25 39.9219 25.25Z" fill="#E2E5E7"/>
<path d="M45.2345 84.75H79.7658C80.4992 84.75 81.0939 85.3843 81.0939 86.1667C81.0939 86.949 80.4992 87.5833 79.7658 87.5833H45.2345C44.5011 87.5833 43.9062 86.949 43.9062 86.1667C43.9063 85.3843 44.5009 84.75 45.2345 84.75Z" fill="#CAD1D8"/>
<path d="M51.875 90.4166H73.125C73.8585 90.4166 74.4531 91.0509 74.4531 91.8333C74.4531 92.6156 73.8585 93.25 73.125 93.25H51.875C51.1415 93.25 50.5467 92.6156 50.5467 91.8333C50.547 91.0509 51.1415 90.4166 51.875 90.4166Z" fill="#CAD1D8"/>
<path d="M62.7347 75.8335C72.3997 75.8335 80.2347 67.9985 80.2347 58.3335C80.2347 48.6685 72.3997 40.8335 62.7347 40.8335C53.0697 40.8335 45.2347 48.6685 45.2347 58.3335C45.2347 67.9985 53.0697 75.8335 62.7347 75.8335Z" fill="#1980E6"/>
<path d="M72.3414 51.586C71.3046 50.4788 69.6229 50.478 68.585 51.5837C68.5843 51.5844 68.5836 51.5851 68.5828 51.586L59.8437 60.9218L56.6828 57.5785C56.6073 57.4627 56.5228 57.3537 56.4305 57.2526C55.3937 56.1455 53.712 56.1446 52.674 57.2503C52.6734 57.251 52.6727 57.2517 52.6719 57.2526C51.6339 58.3585 51.6331 60.1524 52.6697 61.2595C52.6704 61.2602 52.671 61.2609 52.6719 61.2618L57.9844 66.9285C59.0211 68.0356 60.7029 68.0365 61.7408 66.9308C61.7415 66.9301 61.7421 66.9293 61.743 66.9285L72.368 55.5951C73.3986 54.4815 73.3876 52.6876 72.3436 51.5883C72.3429 51.5876 72.3422 51.5869 72.3414 51.586Z" fill="white"/>
<path d="M72.3414 51.5857C72.1141 51.3482 71.8487 51.1563 71.5578 51.019C72.0075 52.0908 71.7909 53.3472 71.0133 54.1782L60.3883 65.5115C59.3515 66.6187 57.6698 66.6195 56.6318 65.5138C56.6312 65.5131 56.6305 65.5124 56.6297 65.5115L57.9578 66.9282C58.9946 68.0353 60.6763 68.0362 61.7142 66.9305C61.7149 66.9298 61.7156 66.9291 61.7164 66.9282L72.3414 55.5949C73.3793 54.489 73.3802 52.6951 72.3436 51.588C72.3429 51.5873 72.3421 51.5866 72.3414 51.5857Z" fill="#DDDFE1"/>
<path d="M73.6695 53.0026C73.4423 52.7651 73.1768 52.5732 72.8859 52.4359C73.3357 53.5076 73.119 54.764 72.3414 55.5951L61.7164 66.9284C60.6796 68.0355 58.9979 68.0364 57.96 66.9307C57.9593 66.93 57.9586 66.9293 57.9578 66.9284L59.2861 68.3451C60.3229 69.4522 62.0046 69.4531 63.0425 68.3474C63.0432 68.3467 63.0439 68.346 63.0447 68.3451L73.6697 57.0117C74.7076 55.9059 74.7085 54.112 73.6719 53.0049C73.6709 53.004 73.6702 53.0033 73.6695 53.0026Z" fill="#1980E6"/>
</svg>
