<svg width="126" height="126" viewBox="0 0 126 126" fill="none"
    xmlns="http://www.w3.org/2000/svg">
    <path d="M63 126C97.7939 126 126 97.7939 126 63C126 28.2061 97.7939 0 63 0C28.2061 0 0 28.2061 0 63C0 97.7939 28.2061 126 63 126Z" fill="#E5E5E5"/>
    <path d="M23.9844 21H101.016C103.216 21 105 22.9028 105 25.25V101.75C105 104.097 103.216 106 101.016 106H23.9844C21.7838 106 20 104.097 20 101.75V25.25C20 22.9028 21.7838 21 23.9844 21Z" fill="#CAD1D8"/>
    <path d="M23.9844 32.3335H101.016C101.749 32.3335 102.344 32.9678 102.344 33.7502V101.75C102.344 102.533 101.749 103.167 101.016 103.167H23.9844C23.2509 103.167 22.6562 102.533 22.6562 101.75V33.7502C22.6562 32.9678 23.2509 32.3335 23.9844 32.3335Z" fill="white"/>
    <path d="M23.9847 28.0821C24.718 28.0821 25.3125 27.448 25.3125 26.6658C25.3125 25.8836 24.718 25.2495 23.9847 25.2495C23.2514 25.2495 22.6569 25.8836 22.6569 26.6658C22.6569 27.448 23.2514 28.0821 23.9847 28.0821Z" fill="#9BA7AF"/>
    <path d="M29.2972 28.0821C30.0305 28.0821 30.625 27.448 30.625 26.6658C30.625 25.8836 30.0305 25.2495 29.2972 25.2495C28.5639 25.2495 27.9694 25.8836 27.9694 26.6658C27.9694 27.448 28.5639 28.0821 29.2972 28.0821Z" fill="#9BA7AF"/>
    <path d="M34.6097 28.0821C35.343 28.0821 35.9375 27.448 35.9375 26.6658C35.9375 25.8836 35.343 25.2495 34.6097 25.2495C33.8764 25.2495 33.2819 25.8836 33.2819 26.6658C33.2819 27.448 33.8764 28.0821 34.6097 28.0821Z" fill="#9BA7AF"/>
    <path d="M39.9219 25.25H101.016C101.749 25.25 102.344 25.8843 102.344 26.6667C102.344 27.449 101.749 28.0833 101.016 28.0833H39.9219C39.1884 28.0833 38.5938 27.449 38.5938 26.6667C38.5938 25.8843 39.1884 25.25 39.9219 25.25Z" fill="#E2E5E7"/>
    <path d="M50.4529 44.8888C50.9401 45.123 51.25 45.6157 51.25 46.1563C51.25 47.7122 51.8352 48.6081 52.5684 49.699L52.6217 49.7783C53.2452 50.7046 54.0625 51.9189 54.0625 53.6563C54.0625 55.4291 53.1678 56.993 51.8053 57.921C52.1637 58.2215 52.4813 58.5921 52.7542 59.0338C53.6463 60.4775 54.0625 62.6834 54.0625 65.8529C54.0625 69.0631 53.6313 72.9181 52.9289 75.9957C52.5796 77.5261 52.1471 78.9378 51.6301 79.9989C51.3737 80.525 51.0615 81.0389 50.6728 81.4409C50.2884 81.8382 49.6944 82.2592 48.9062 82.2592C48.1181 82.2592 47.5241 81.8382 47.1397 81.4409C46.751 81.0389 46.4388 80.525 46.1824 79.9989C45.6654 78.9378 45.2329 77.5261 44.8836 75.9957C44.1812 72.9181 43.75 69.0631 43.75 65.8529C43.75 62.6834 44.1662 60.4775 45.0583 59.0338C45.3312 58.5921 45.6488 58.2215 46.0072 57.921C44.6447 56.993 43.75 55.4291 43.75 53.6563C43.75 52.9659 43.7506 51.7792 44.4689 50.2469C45.1718 48.7474 46.5075 47.0244 48.9653 45.0582C49.3874 44.7205 49.9657 44.6546 50.4529 44.8888ZM46.5625 53.6539V53.6563C46.5625 54.9507 47.6118 56 48.9062 56C50.2007 56 51.25 54.9507 51.25 53.6563C51.25 52.8331 50.9035 52.2639 50.234 51.2678L50.2111 51.2337C49.782 50.5953 49.2751 49.8412 48.9134 48.8704C47.8947 49.9062 47.3322 50.765 47.0155 51.4406C46.5625 52.407 46.5625 53.0947 46.5625 53.6539ZM47.4509 60.5122C46.9857 61.265 46.5625 62.8091 46.5625 65.8529C46.5625 68.8559 46.9708 72.5009 47.6256 75.3699C47.9549 76.8131 48.3304 77.9862 48.7108 78.767C48.7808 78.9106 48.8464 79.0314 48.9062 79.1317C48.9661 79.0314 49.0317 78.9106 49.1017 78.767C49.4821 77.9862 49.8576 76.8131 50.1869 75.3699C50.8417 72.5009 51.25 68.8559 51.25 65.8529C51.25 62.8091 50.8268 61.265 50.3616 60.5122C50.1499 60.1694 49.9397 60.0073 49.752 59.9161C49.5498 59.8181 49.2825 59.7592 48.9062 59.7592C48.53 59.7592 48.2627 59.8181 48.0605 59.9161C47.8728 60.0073 47.6626 60.1694 47.4509 60.5122Z" fill="#1980E6"/>
    <path d="M58.7499 68.9694C57.7405 68.8001 56.7768 68.4963 55.8776 68.0773C55.9169 67.3154 55.9374 66.5694 55.9374 65.8529C55.9374 65.5233 55.9332 65.1999 55.9243 64.883C56.7702 65.4513 57.7246 65.8708 58.7499 66.1034V60.6875C58.7499 59.1342 60.0091 57.875 61.5623 57.875H69.0623C69.0623 53.2151 65.2847 49.4375 60.6248 49.4375C58.6966 49.4375 56.9194 50.0843 55.4985 51.1728C55.1244 50.1371 54.5897 49.3437 54.2177 48.7916L54.1422 48.6795C55.9746 47.3853 58.2109 46.625 60.6248 46.625C66.838 46.625 71.8748 51.6618 71.8748 57.875H78.4373C79.9907 57.875 81.2498 59.1342 81.2498 60.6875V77.5625C81.2498 79.1157 79.9907 80.375 78.4373 80.375H61.5623C60.0091 80.375 58.7499 79.1157 58.7499 77.5625V68.9694ZM61.5623 69.0866V77.5625H78.4373V60.6875H71.5204C70.3469 65.2475 66.3861 68.6885 61.5623 69.0866ZM68.5823 60.6875H61.5623V66.2609C64.8231 65.9006 67.5239 63.6819 68.5823 60.6875Z" fill="#1980E6"/>
</svg>
