<svg width="126" height="126" viewBox="0 0 126 126" fill="none" xmlns="http://www.w3.org/2000/svg">
<path d="M63 126C97.7939 126 126 97.7939 126 63C126 28.2061 97.7939 0 63 0C28.2061 0 0 28.2061 0 63C0 97.7939 28.2061 126 63 126Z" fill="#E0E0E0"/>
<path d="M110.25 40.3594H15.75V97.4531H110.25V40.3594Z" fill="white"/>
<path d="M110.25 28.5469H15.75V40.3791H110.25V28.5469Z" fill="#CCCCCC"/>
<path d="M23.9065 36.1109C24.8166 36.1109 25.5544 35.3731 25.5544 34.463C25.5544 33.5529 24.8166 32.8152 23.9065 32.8152C22.9965 32.8152 22.2587 33.5529 22.2587 34.463C22.2587 35.3731 22.9965 36.1109 23.9065 36.1109Z" fill="#00C454"/>
<path d="M28.8481 36.1109C29.7581 36.1109 30.4959 35.3731 30.4959 34.463C30.4959 33.5529 29.7581 32.8152 28.8481 32.8152C27.938 32.8152 27.2002 33.5529 27.2002 34.463C27.2002 35.3731 27.938 36.1109 28.8481 36.1109Z" fill="white"/>
<path d="M33.7838 36.1109C34.6938 36.1109 35.4316 35.3731 35.4316 34.463C35.4316 33.5529 34.6938 32.8152 33.7838 32.8152C32.8737 32.8152 32.1359 33.5529 32.1359 34.463C32.1359 35.3731 32.8737 36.1109 33.7838 36.1109Z" fill="#E2E5E7"/>
<path d="M98.4375 37.3571H47.3307L50.8607 31.5709H101.969L98.4375 37.3571Z" fill="#E2E5E7"/>
<path d="M54.5796 33.1715L54.9222 34.4866C54.997 34.7741 55.0659 35.0418 55.1151 35.3096H55.1309C55.19 35.0477 55.2746 34.7701 55.3612 34.4925L55.7826 33.1715H56.1783L56.5799 34.465C56.6764 34.7741 56.7512 35.0477 56.8083 35.3096H56.826C56.8673 35.0477 56.9382 34.776 57.0248 34.4709L57.395 33.1715H57.8596L57.0248 35.7584H56.5956L56.1999 34.524C56.1094 34.2346 56.0346 33.9787 55.9716 33.6716H55.9597C55.8967 33.9826 55.816 34.2504 55.7255 34.528L55.3081 35.7584H54.8789L54.0993 33.1715H54.5796Z" fill="white"/>
<path d="M58.5703 33.1715L58.9129 34.4866C58.9877 34.7741 59.0566 35.0418 59.1058 35.3096H59.1235C59.1806 35.0477 59.2672 34.7701 59.3519 34.4925L59.7752 33.1715H60.1709L60.5705 34.465C60.667 34.7741 60.7418 35.0477 60.8009 35.3096H60.8166C60.858 35.0477 60.9308 34.776 61.0155 34.4709L61.3856 33.1715H61.8502L61.0155 35.7584H60.5883L60.1925 34.524C60.102 34.2346 60.0272 33.9787 59.9622 33.6716H59.9524C59.8874 33.9826 59.8086 34.2504 59.7161 34.528L59.2987 35.7584H58.8715L58.0919 33.1715H58.5703Z" fill="white"/>
<path d="M62.561 33.1715L62.9035 34.4866C62.9783 34.7741 63.0472 35.0418 63.0965 35.3096H63.1142C63.1713 35.0477 63.2579 34.7701 63.3425 34.4925L63.7658 33.1715H64.1615L64.5612 34.465C64.6577 34.7741 64.7325 35.0477 64.7915 35.3096H64.8073C64.8486 35.0477 64.9215 34.776 65.0061 34.4709L65.3763 33.1715H65.8409L65.0061 35.7584H64.5789L64.1832 34.524C64.0926 34.2346 64.0178 33.9787 63.9529 33.6716H63.943C63.878 33.9826 63.7993 34.2504 63.7068 34.528L63.2894 35.7584H62.8622L62.0826 33.1715H62.561Z" fill="white"/>
<path d="M15.75 91.7162H31.0432L36.7802 97.4531H15.75V91.7162Z" fill="#CCCCCC"/>
<path d="M110.25 91.7162H94.9568L89.2198 97.4531H110.25V91.7162Z" fill="#CCCCCC"/>
<path d="M56.7059 69.5756L49.6932 50.9729H44.543V49.2837H50.8607L58.2848 68.9791L56.7059 69.5756Z" fill="#666666"/>
<path d="M76.9309 77.6889H53.5835L49.0554 62.7677H81.457L76.9309 77.6889Z" fill="#1980E6"/>
<path d="M57.9384 87.381C59.9705 87.381 61.618 85.7336 61.618 83.7014C61.618 81.6693 59.9705 80.0219 57.9384 80.0219C55.9062 80.0219 54.2588 81.6693 54.2588 83.7014C54.2588 85.7336 55.9062 87.381 57.9384 87.381Z" fill="#666666"/>
<path d="M73.1981 87.381C75.2303 87.381 76.8777 85.7336 76.8777 83.7014C76.8777 81.6693 75.2303 80.0219 73.1981 80.0219C71.166 80.0219 69.5186 81.6693 69.5186 83.7014C69.5186 85.7336 71.166 87.381 73.1981 87.381Z" fill="#666666"/>
<path d="M69.115 50.8922L75.5902 54.6309L69.115 58.3676V50.8922Z" fill="#666666"/>
<path d="M69.176 53.5598H61.9625V55.9637H69.176V53.5598Z" fill="#666666"/>
</svg>
