<svg width="126" height="126" viewBox="0 0 126 126" fill="none" xmlns="http://www.w3.org/2000/svg">
<path d="M63 126C97.7939 126 126 97.7939 126 63C126 28.2061 97.7939 0 63 0C28.2061 0 0 28.2061 0 63C0 97.7939 28.2061 126 63 126Z" fill="#E5E5E5"/>
<path d="M84.6562 112.219H41.3438V114.188H84.6562V112.219Z" fill="#CCCCCC"/>
<path d="M76.7812 112.219H49.2188L51.1875 98.4375H74.8125L76.7812 112.219Z" fill="#ADADAD"/>
<path d="M110.25 88.5938V96.4688C110.25 97.5516 109.364 98.4375 108.281 98.4375H17.7188C16.6359 98.4375 15.75 97.5516 15.75 96.4688V88.5938H110.25Z" fill="#CCCCCC"/>
<path d="M106.312 29.5312H19.6875V84.6562H106.312V29.5312Z" fill="white"/>
<path d="M108.281 25.5938H17.7188C16.6359 25.5938 15.75 26.4797 15.75 27.5625V88.5938H110.25V27.5625C110.25 26.4797 109.364 25.5938 108.281 25.5938ZM106.312 84.6562H19.6875V29.5312H106.312V84.6562Z" fill="#3B3B3B"/>
<path d="M106.312 29.5312H19.6875V84.6562H106.312V29.5312Z" fill="white"/>
<path d="M92.5312 64.9688H76.7812V78.75H92.5312V64.9688Z" fill="#CCCCCC"/>
<path d="M49.2188 64.9688H33.4688V78.75H49.2188V64.9688Z" fill="#CCCCCC"/>
<path d="M70.875 64.9688H55.125V78.75H70.875V64.9688Z" fill="#CCCCCC"/>
<path d="M92.5312 35.4375H33.4688V59.0625H92.5312V35.4375Z" fill="#1980E6"/>
</svg>
