<svg width="126" height="126" viewBox="0 0 126 126" fill="none" xmlns="http://www.w3.org/2000/svg">
<path d="M63 126C97.7939 126 126 97.7939 126 63C126 28.2061 97.7939 0 63 0C28.2061 0 0 28.2061 0 63C0 97.7939 28.2061 126 63 126Z" fill="#E0E0E0"/>
<path d="M110.25 40.3594H15.75V97.4531H110.25V40.3594Z" fill="white"/>
<path d="M110.25 28.5469H15.75V40.3791H110.25V28.5469Z" fill="black"/>
<path d="M23.9065 36.1108C24.8166 36.1108 25.5544 35.373 25.5544 34.463C25.5544 33.5529 24.8166 32.8151 23.9065 32.8151C22.9965 32.8151 22.2587 33.5529 22.2587 34.463C22.2587 35.373 22.9965 36.1108 23.9065 36.1108Z" fill="#00C454"/>
<path d="M28.8481 36.1108C29.7581 36.1108 30.4959 35.373 30.4959 34.463C30.4959 33.5529 29.7581 32.8151 28.8481 32.8151C27.938 32.8151 27.2002 33.5529 27.2002 34.463C27.2002 35.373 27.938 36.1108 28.8481 36.1108Z" fill="white"/>
<path d="M33.7838 36.1108C34.6938 36.1108 35.4316 35.373 35.4316 34.463C35.4316 33.5529 34.6938 32.8151 33.7838 32.8151C32.8737 32.8151 32.1359 33.5529 32.1359 34.463C32.1359 35.373 32.8737 36.1108 33.7838 36.1108Z" fill="#666666"/>
<path d="M98.4375 37.357H47.3307L50.8607 31.5709H101.969L98.4375 37.357Z" fill="#666666"/>
<path d="M54.5796 33.1714L54.9222 34.4866C54.997 34.774 55.0659 35.0418 55.1151 35.3095H55.1309C55.19 35.0477 55.2746 34.7701 55.3612 34.4925L55.7826 33.1714H56.1783L56.5799 34.4649C56.6764 34.774 56.7512 35.0477 56.8083 35.3095H56.826C56.8673 35.0477 56.9382 34.776 57.0248 34.4708L57.395 33.1714H57.8596L57.0248 35.7584H56.5956L56.1999 34.524C56.1094 34.2346 56.0346 33.9786 55.9716 33.6715H55.9597C55.8967 33.9826 55.816 34.2503 55.7255 34.5279L55.3081 35.7584H54.8789L54.0993 33.1714H54.5796Z" fill="white"/>
<path d="M58.5703 33.1714L58.9129 34.4866C58.9877 34.774 59.0566 35.0418 59.1058 35.3095H59.1235C59.1806 35.0477 59.2672 34.7701 59.3519 34.4925L59.7752 33.1714H60.1709L60.5705 34.4649C60.667 34.774 60.7418 35.0477 60.8009 35.3095H60.8166C60.858 35.0477 60.9308 34.776 61.0155 34.4708L61.3856 33.1714H61.8502L61.0155 35.7584H60.5883L60.1925 34.524C60.102 34.2346 60.0272 33.9786 59.9622 33.6715H59.9524C59.8874 33.9826 59.8086 34.2503 59.7161 34.5279L59.2987 35.7584H58.8715L58.0919 33.1714H58.5703Z" fill="white"/>
<path d="M62.561 33.1714L62.9035 34.4866C62.9783 34.774 63.0472 35.0418 63.0965 35.3095H63.1142C63.1713 35.0477 63.2579 34.7701 63.3425 34.4925L63.7658 33.1714H64.1615L64.5612 34.4649C64.6577 34.774 64.7325 35.0477 64.7915 35.3095H64.8073C64.8486 35.0477 64.9215 34.776 65.0061 34.4708L65.3763 33.1714H65.8409L65.0061 35.7584H64.5789L64.1832 34.524C64.0926 34.2346 64.0178 33.9786 63.9529 33.6715H63.943C63.878 33.9826 63.7993 34.2503 63.7068 34.5279L63.2894 35.7584H62.8622L62.0826 33.1714H62.561Z" fill="white"/>
<g clip-path="url(#clip0_103_152)">
<path d="M88 77.6511L64.4397 62.8153L47.3416 73.582L70.9021 88.4177L88 77.6511Z" fill="#7A7674"/>
<path d="M88 72.9118L64.4397 58.076L47.3416 68.8427L70.9021 83.6784L88 72.9118Z" fill="#CCC4C1"/>
<path d="M88 68.1725L64.4397 53.3366L47.3416 64.1033L70.9021 78.9391L88 68.1725Z" fill="#EBEDEC"/>
<path d="M38 50.1299V75.2824L64.3423 91.8701V66.7176L38 50.1299Z" fill="#1980E6"/>
<path d="M47.2515 65.5696C46.0731 64.8277 45.1091 65.5535 45.1091 67.1826C45.1091 68.8117 46.073 70.7516 47.2512 71.4935C48.4294 72.2353 49.3934 71.5095 49.3935 69.8805C49.3937 68.2516 48.4298 66.3117 47.2515 65.5696Z" fill="white"/>
<path d="M57.2321 73.6326C57.0163 73.6326 56.798 73.5738 56.602 73.4503L52.3171 70.7522C51.7633 70.4036 51.5971 69.672 51.9458 69.1183C52.2944 68.5646 53.0262 68.3985 53.5797 68.747L57.8646 71.4451C58.4184 71.7937 58.5846 72.5253 58.2359 73.079C58.0107 73.4365 57.6257 73.6326 57.2321 73.6326Z" fill="#3D3D3B"/>
<path d="M57.232 78.3719C57.0163 78.3719 56.798 78.313 56.6019 78.1896L52.317 75.4913C51.7633 75.1426 51.5971 74.4112 51.9458 73.8573C52.2943 73.3038 53.026 73.1375 53.5798 73.4862L57.8647 76.1844C58.4184 76.5331 58.5846 77.2646 58.2359 77.8184C58.0107 78.1758 57.6257 78.3719 57.232 78.3719Z" fill="#3D3D3B"/>
</g>
<defs>
<clipPath id="clip0_103_152">
<rect width="50" height="50" fill="white" transform="translate(38 46)"/>
</clipPath>
</defs>
</svg>
